<?xml version="1.0" encoding="UTF-8"?>
<svg width="49px" height="44px" viewBox="0 0 49 44" version="1.1" xmlns="http://www.w3.org/2000/svg" xmlns:xlink="http://www.w3.org/1999/xlink">
    <title>logo</title>
    <g id="页面-2" stroke="none" stroke-width="1" fill="none" fill-rule="evenodd">
        <g id="门户首页-办公模式" transform="translate(-20.000000, -18.000000)" fill="#FFFFFF">
            <g id="logo" transform="translate(20.000000, 18.000000)">
                <path d="M38.24,29.44 C38.56,28.4 38.72,27.28 38.88,26.16 L31.28,26.16 C29.12,30.48 24.64,33.44 19.52,33.44 C12.24,33.44 6.4,27.52 6.4,20.32 C6.4,13.04 12.32,7.2 19.52,7.2 C25.44,7.2 30.4,11.12 32.08,16.48 L37.36,16.48 C34.32,9.6 27.52,4.8 19.52,4.8 C10.24,4.8 2.48,11.28 0.56,19.92 C0.4,20.64 0.32,21.52 0.24,22.16 C0.24,23.04 0.4,24.4 0.8,25.2 C3.52,31.84 10.08,36.48 17.76,36.48 C21.52,36.48 25.04,35.36 28,33.36 C28,33.36 30.64,31.76 33.28,30.72 C35.76,29.6 38.24,29.44 38.24,29.44 Z M0.8,28.96 C0.48,28 0.08,26.72 0,25.52 C2.96,32.56 9.92,37.52 18,37.52 C21.92,37.52 25.52,36.4 28.56,34.4 C28.56,34.4 30.72,33.2 32.8,32.56 C34.88,31.92 37.44,31.68 37.44,31.68 C36.96,32.8 36.32,33.92 35.68,34.96 C35.68,34.96 34.24,34.96 32.56,35.44 C31.04,35.84 27.84,37.36 27.84,37.36 C25.04,38.96 21.76,39.84 18.24,39.84 C10.64,39.92 4,35.44 0.8,28.96 Z M1.52,31.84 C4.48,38.88 11.44,43.76 19.52,43.76 C25.36,43.76 30.64,41.2 34.16,37.12 C34.16,37.12 32.96,37.12 31.36,37.52 C29.76,37.92 28.48,38.56 28.48,38.56 C25.6,40.16 22.24,41.04 18.72,41.04 C11.52,40.96 5.2,37.36 1.52,31.84 Z" id="形状"></path>
                <path d="M30.16,26.24 C28.08,30 24.08,32.56 19.44,32.56 C12.72,32.56 7.28,27.12 7.28,20.4 C7.28,14.64 11.28,9.76 16.72,8.56 L18.24,0 L20.64,0 L22.16,8.56 C26.32,9.52 29.6,12.56 30.96,16.56 L28.4,16.56 C27.28,14.08 25.2,12.16 22.64,11.28 L24.96,24.32 L26,18.48 L28.64,18.48 L27.2,26.32 L30.16,26.32 L30.16,26.24 Z M16.24,11.12 C12.4,12.48 9.68,16.08 9.68,20.32 C9.68,25.68 14.08,30.08 19.44,30.08 C22.64,30.08 25.44,28.56 27.2,26.16 L22.32,26.16 L19.44,10.56 L16.72,26.16 L13.6,26.16 L16.24,11.12 Z M37.76,20.32 L37.44,22.24 L39.36,22.24 L39.68,20.32 L37.76,20.32 Z M36.16,18.4 L42,18.4 L40.96,24.24 L35.12,24.24 L36.16,18.4 Z M31.12,20.32 L30.8,22.16 L32.72,22.16 L33.04,20.24 L31.12,20.24 L31.12,20.32 Z M29.44,18.4 L35.28,18.4 L34.24,24.24 L28.4,24.24 L29.44,18.4 Z M47.6,22.16 L47.2,24.24 L41.68,24.24 L42.72,18.4 L48.24,18.4 L47.92,20.32 L44.4,20.32 L44.08,22.24 L47.6,22.24 L47.6,22.16 Z" id="形状" fill-rule="nonzero"></path>
            </g>
        </g>
    </g>
</svg>